{
	"asset":{
		"generator":"Khronos glTF Blender I/O v4.3.47",
		"version":"2.0"
	},
	"scene":0,
	"scenes":[
		{
			"name":"Scene",
			"nodes":[
				0
			]
		}
	],
	"nodes":[
		{
			"mesh":0,
			"name":"Cone.002",
			"rotation":[
				-0.9527931809425354,
				0,
				0,
				0.3036200702190399
			],
			"scale":[
				0.8695581555366516,
				0.8695581555366516,
				0.8695581555366516
			],
			"translation":[
				0,
				0.258529394865036,
				-0.9422378540039062
			]
		}
	],
	"materials":[
		{
			"doubleSided":true,
			"emissiveFactor":[
				1,
				0.5982648134231567,
				0
			],
			"name":"Material.001",
			"pbrMetallicRoughness":{
				"baseColorFactor":[
					0.7359645366668701,
					0.716937780380249,
					0.18857699632644653,
					1
				],
				"metallicFactor":0,
				"roughnessFactor":0.5
			}
		},
		{
			"doubleSided":true,
			"name":"Material",
			"pbrMetallicRoughness":{
				"baseColorFactor":[
					0.010219560004770756,
					0.010219560004770756,
					0.010219560004770756,
					1
				],
				"metallicFactor":0,
				"roughnessFactor":0.5
			}
		}
	],
	"meshes":[
		{
			"name":"Cone.002",
			"primitives":[
				{
					"attributes":{
						"POSITION":0,
						"NORMAL":1,
						"TEXCOORD_0":2
					},
					"indices":3,
					"material":0
				},
				{
					"attributes":{
						"POSITION":4,
						"NORMAL":5,
						"TEXCOORD_0":6
					},
					"indices":7,
					"material":1
				}
			]
		}
	],
	"accessors":[
		{
			"bufferView":0,
			"componentType":5126,
			"count":2624,
			"max":[
				0.8549764752388,
				1.35285484790802,
				3.169131278991699
			],
			"min":[
				-0.8549758791923523,
				-4.57527494430542,
				-3.1635091304779053
			],
			"type":"VEC3"
		},
		{
			"bufferView":1,
			"componentType":5126,
			"count":2624,
			"type":"VEC3"
		},
		{
			"bufferView":2,
			"componentType":5126,
			"count":2624,
			"type":"VEC2"
		},
		{
			"bufferView":3,
			"componentType":5123,
			"count":3810,
			"type":"SCALAR"
		},
		{
			"bufferView":4,
			"componentType":5126,
			"count":4046,
			"max":[
				0.8835917711257935,
				-1.0687932968139648,
				0.6758722066879272
			],
			"min":[
				0.7077035903930664,
				-2.497112989425659,
				-0.7428454160690308
			],
			"type":"VEC3"
		},
		{
			"bufferView":5,
			"componentType":5126,
			"count":4046,
			"type":"VEC3"
		},
		{
			"bufferView":6,
			"componentType":5126,
			"count":4046,
			"type":"VEC2"
		},
		{
			"bufferView":7,
			"componentType":5123,
			"count":5892,
			"type":"SCALAR"
		}
	],
	"bufferViews":[
		{
			"buffer":0,
			"byteLength":31488,
			"byteOffset":0,
			"target":34962
		},
		{
			"buffer":0,
			"byteLength":31488,
			"byteOffset":31488,
			"target":34962
		},
		{
			"buffer":0,
			"byteLength":20992,
			"byteOffset":62976,
			"target":34962
		},
		{
			"buffer":0,
			"byteLength":7620,
			"byteOffset":83968,
			"target":34963
		},
		{
			"buffer":0,
			"byteLength":48552,
			"byteOffset":91588,
			"target":34962
		},
		{
			"buffer":0,
			"byteLength":48552,
			"byteOffset":140140,
			"target":34962
		},
		{
			"buffer":0,
			"byteLength":32368,
			"byteOffset":188692,
			"target":34962
		},
		{
			"buffer":0,
			"byteLength":11784,
			"byteOffset":221060,
			"target":34963
		}
	],
	"buffers":[
		{
			"byteLength":232844,
			"uri":"estrella.bin"
		}
	]
}
