{
	"asset":{
		"generator":"Khronos glTF Blender I/O v4.3.47",
		"version":"2.0"
	},
	"scene":0,
	"scenes":[
		{
			"name":"Scene",
			"nodes":[
				0,
				1,
				2,
				3,
				4,
				5,
				6,
				7,
				8,
				9
			]
		}
	],
	"nodes":[
		{
			"mesh":0,
			"name":"Circle",
			"rotation":[
				0,
				0,
				-0.7071068286895752,
				0.7071068286895752
			],
			"translation":[
				0,
				1.4953076839447021,
				0
			]
		},
		{
			"mesh":1,
			"name":"Circle.001",
			"rotation":[
				0,
				0,
				-0.7071067690849304,
				0.7071068286895752
			],
			"scale":[
				0.0793367549777031,
				0.0793367549777031,
				0.0793367549777031
			],
			"translation":[
				0.12936562299728394,
				2.1114776134490967,
				0
			]
		},
		{
			"mesh":2,
			"name":"Circle.002",
			"rotation":[
				0,
				0,
				-0.7071068286895752,
				0.7071068286895752
			],
			"scale":[
				0.1120290532708168,
				0.1120290532708168,
				0.1120290532708168
			],
			"translation":[
				0.13002483546733856,
				1.619530200958252,
				0.31716597080230713
			]
		},
		{
			"mesh":3,
			"name":"Circle.003",
			"rotation":[
				0,
				0,
				-0.7071068286895752,
				0.7071068286895752
			],
			"scale":[
				0.1120290532708168,
				0.1120290532708168,
				0.1120290532708168
			],
			"translation":[
				0.12518860399723053,
				1.0998671054840088,
				0.6764454245567322
			]
		},
		{
			"mesh":4,
			"name":"Circle.004",
			"rotation":[
				0,
				0,
				-0.7071068286895752,
				0.7071068286895752
			],
			"scale":[
				0.1120290532708168,
				0.1120290532708168,
				0.1120290532708168
			],
			"translation":[
				0.12394510954618454,
				0.6825015544891357,
				-0.10776212811470032
			]
		},
		{
			"mesh":5,
			"name":"Circle.005",
			"rotation":[
				0,
				0,
				-0.7071067690849304,
				0.7071068286895752
			],
			"scale":[
				0.0793367549777031,
				0.0793367549777031,
				0.0793367549777031
			],
			"translation":[
				-0.00408586859703064,
				2.1114776134490967,
				0
			]
		},
		{
			"mesh":6,
			"name":"Circle.006",
			"rotation":[
				0,
				0,
				-0.7071068286895752,
				0.7071068286895752
			],
			"scale":[
				0.1120290532708168,
				0.1120290532708168,
				0.1120290532708168
			],
			"translation":[
				-0.003426656126976013,
				1.619530200958252,
				0.31716597080230713
			]
		},
		{
			"mesh":7,
			"name":"Circle.007",
			"rotation":[
				0,
				0,
				-0.7071068286895752,
				0.7071068286895752
			],
			"scale":[
				0.1120290532708168,
				0.1120290532708168,
				0.1120290532708168
			],
			"translation":[
				-0.008262887597084045,
				1.0998671054840088,
				0.6764454245567322
			]
		},
		{
			"mesh":8,
			"name":"Circle.008",
			"rotation":[
				0,
				0,
				-0.7071068286895752,
				0.7071068286895752
			],
			"scale":[
				0.1120290532708168,
				0.1120290532708168,
				0.1120290532708168
			],
			"translation":[
				-0.009506382048130035,
				0.6825015544891357,
				-0.10776212811470032
			]
		},
		{
			"mesh":9,
			"name":"Circle.009",
			"rotation":[
				0,
				0,
				-0.7071068286895752,
				0.7071068286895752
			],
			"scale":[
				0.115080326795578,
				0.115080326795578,
				0.115080326795578
			],
			"translation":[
				0.12641675770282745,
				1.531518578529358,
				0.4987286925315857
			]
		}
	],
	"materials":[
		{
			"doubleSided":true,
			"name":"Material.001",
			"pbrMetallicRoughness":{
				"baseColorFactor":[
					0.21990706026554108,
					0.483662486076355,
					0.8006705641746521,
					1
				],
				"metallicFactor":0,
				"roughnessFactor":0.5
			}
		},
		{
			"doubleSided":true,
			"name":"Material.002",
			"pbrMetallicRoughness":{
				"baseColorFactor":[
					0.1927952915430069,
					0.3088454008102417,
					0.8001565933227539,
					1
				],
				"metallicFactor":0,
				"roughnessFactor":0.5
			}
		},
		{
			"doubleSided":true,
			"name":"Material.003",
			"pbrMetallicRoughness":{
				"baseColorFactor":[
					0,
					0,
					0,
					1
				],
				"metallicFactor":0,
				"roughnessFactor":0.5
			}
		}
	],
	"meshes":[
		{
			"name":"Circle",
			"primitives":[
				{
					"attributes":{
						"POSITION":0,
						"NORMAL":1,
						"TEXCOORD_0":2
					},
					"indices":3,
					"material":0
				}
			]
		},
		{
			"name":"Circle.001",
			"primitives":[
				{
					"attributes":{
						"POSITION":4,
						"NORMAL":5,
						"TEXCOORD_0":6
					},
					"indices":7,
					"material":1
				}
			]
		},
		{
			"name":"Circle.002",
			"primitives":[
				{
					"attributes":{
						"POSITION":8,
						"NORMAL":9,
						"TEXCOORD_0":10
					},
					"indices":7,
					"material":1
				}
			]
		},
		{
			"name":"Circle.003",
			"primitives":[
				{
					"attributes":{
						"POSITION":11,
						"NORMAL":12,
						"TEXCOORD_0":13
					},
					"indices":7,
					"material":1
				}
			]
		},
		{
			"name":"Circle.004",
			"primitives":[
				{
					"attributes":{
						"POSITION":14,
						"NORMAL":15,
						"TEXCOORD_0":16
					},
					"indices":7,
					"material":1
				}
			]
		},
		{
			"name":"Circle.005",
			"primitives":[
				{
					"attributes":{
						"POSITION":17,
						"NORMAL":18,
						"TEXCOORD_0":19
					},
					"indices":7,
					"material":1
				}
			]
		},
		{
			"name":"Circle.006",
			"primitives":[
				{
					"attributes":{
						"POSITION":20,
						"NORMAL":21,
						"TEXCOORD_0":22
					},
					"indices":7,
					"material":1
				}
			]
		},
		{
			"name":"Circle.007",
			"primitives":[
				{
					"attributes":{
						"POSITION":23,
						"NORMAL":24,
						"TEXCOORD_0":25
					},
					"indices":7,
					"material":1
				}
			]
		},
		{
			"name":"Circle.008",
			"primitives":[
				{
					"attributes":{
						"POSITION":26,
						"NORMAL":27,
						"TEXCOORD_0":28
					},
					"indices":7,
					"material":1
				}
			]
		},
		{
			"name":"Circle.009",
			"primitives":[
				{
					"attributes":{
						"POSITION":29,
						"NORMAL":30,
						"TEXCOORD_0":31
					},
					"indices":32,
					"material":2
				}
			]
		}
	],
	"accessors":[
		{
			"bufferView":0,
			"componentType":5126,
			"count":222,
			"max":[
				1,
				0.12761268019676208,
				1.000727653503418
			],
			"min":[
				-1.0017335414886475,
				-0.005808582529425621,
				-0.8088489770889282
			],
			"type":"VEC3"
		},
		{
			"bufferView":1,
			"componentType":5126,
			"count":222,
			"type":"VEC3"
		},
		{
			"bufferView":2,
			"componentType":5126,
			"count":222,
			"type":"VEC2"
		},
		{
			"bufferView":3,
			"componentType":5123,
			"count":384,
			"type":"SCALAR"
		},
		{
			"bufferView":4,
			"componentType":5126,
			"count":21,
			"max":[
				1,
				0,
				1
			],
			"min":[
				-1,
				0,
				-1
			],
			"type":"VEC3"
		},
		{
			"bufferView":5,
			"componentType":5126,
			"count":21,
			"type":"VEC3"
		},
		{
			"bufferView":6,
			"componentType":5126,
			"count":21,
			"type":"VEC2"
		},
		{
			"bufferView":7,
			"componentType":5123,
			"count":60,
			"type":"SCALAR"
		},
		{
			"bufferView":8,
			"componentType":5126,
			"count":21,
			"max":[
				1,
				0,
				1
			],
			"min":[
				-1,
				0,
				-1
			],
			"type":"VEC3"
		},
		{
			"bufferView":9,
			"componentType":5126,
			"count":21,
			"type":"VEC3"
		},
		{
			"bufferView":10,
			"componentType":5126,
			"count":21,
			"type":"VEC2"
		},
		{
			"bufferView":11,
			"componentType":5126,
			"count":21,
			"max":[
				1,
				0,
				1
			],
			"min":[
				-1,
				0,
				-1
			],
			"type":"VEC3"
		},
		{
			"bufferView":12,
			"componentType":5126,
			"count":21,
			"type":"VEC3"
		},
		{
			"bufferView":13,
			"componentType":5126,
			"count":21,
			"type":"VEC2"
		},
		{
			"bufferView":14,
			"componentType":5126,
			"count":21,
			"max":[
				1,
				0,
				1
			],
			"min":[
				-1,
				0,
				-1
			],
			"type":"VEC3"
		},
		{
			"bufferView":15,
			"componentType":5126,
			"count":21,
			"type":"VEC3"
		},
		{
			"bufferView":16,
			"componentType":5126,
			"count":21,
			"type":"VEC2"
		},
		{
			"bufferView":17,
			"componentType":5126,
			"count":21,
			"max":[
				1,
				0,
				1
			],
			"min":[
				-1,
				0,
				-1
			],
			"type":"VEC3"
		},
		{
			"bufferView":18,
			"componentType":5126,
			"count":21,
			"type":"VEC3"
		},
		{
			"bufferView":19,
			"componentType":5126,
			"count":21,
			"type":"VEC2"
		},
		{
			"bufferView":20,
			"componentType":5126,
			"count":21,
			"max":[
				1,
				0,
				1
			],
			"min":[
				-1,
				0,
				-1
			],
			"type":"VEC3"
		},
		{
			"bufferView":21,
			"componentType":5126,
			"count":21,
			"type":"VEC3"
		},
		{
			"bufferView":22,
			"componentType":5126,
			"count":21,
			"type":"VEC2"
		},
		{
			"bufferView":23,
			"componentType":5126,
			"count":21,
			"max":[
				1,
				0,
				1
			],
			"min":[
				-1,
				0,
				-1
			],
			"type":"VEC3"
		},
		{
			"bufferView":24,
			"componentType":5126,
			"count":21,
			"type":"VEC3"
		},
		{
			"bufferView":25,
			"componentType":5126,
			"count":21,
			"type":"VEC2"
		},
		{
			"bufferView":26,
			"componentType":5126,
			"count":21,
			"max":[
				1,
				0,
				1
			],
			"min":[
				-1,
				0,
				-1
			],
			"type":"VEC3"
		},
		{
			"bufferView":27,
			"componentType":5126,
			"count":21,
			"type":"VEC3"
		},
		{
			"bufferView":28,
			"componentType":5126,
			"count":21,
			"type":"VEC2"
		},
		{
			"bufferView":29,
			"componentType":5126,
			"count":26,
			"max":[
				1.4828298091888428,
				5.117902901474736e-08,
				2.8246214389801025
			],
			"min":[
				8.661731953907292e-08,
				-0.040185634046792984,
				-0.2936558723449707
			],
			"type":"VEC3"
		},
		{
			"bufferView":30,
			"componentType":5126,
			"count":26,
			"type":"VEC3"
		},
		{
			"bufferView":31,
			"componentType":5126,
			"count":26,
			"type":"VEC2"
		},
		{
			"bufferView":32,
			"componentType":5123,
			"count":48,
			"type":"SCALAR"
		}
	],
	"bufferViews":[
		{
			"buffer":0,
			"byteLength":2664,
			"byteOffset":0,
			"target":34962
		},
		{
			"buffer":0,
			"byteLength":2664,
			"byteOffset":2664,
			"target":34962
		},
		{
			"buffer":0,
			"byteLength":1776,
			"byteOffset":5328,
			"target":34962
		},
		{
			"buffer":0,
			"byteLength":768,
			"byteOffset":7104,
			"target":34963
		},
		{
			"buffer":0,
			"byteLength":252,
			"byteOffset":7872,
			"target":34962
		},
		{
			"buffer":0,
			"byteLength":252,
			"byteOffset":8124,
			"target":34962
		},
		{
			"buffer":0,
			"byteLength":168,
			"byteOffset":8376,
			"target":34962
		},
		{
			"buffer":0,
			"byteLength":120,
			"byteOffset":8544,
			"target":34963
		},
		{
			"buffer":0,
			"byteLength":252,
			"byteOffset":8664,
			"target":34962
		},
		{
			"buffer":0,
			"byteLength":252,
			"byteOffset":8916,
			"target":34962
		},
		{
			"buffer":0,
			"byteLength":168,
			"byteOffset":9168,
			"target":34962
		},
		{
			"buffer":0,
			"byteLength":252,
			"byteOffset":9336,
			"target":34962
		},
		{
			"buffer":0,
			"byteLength":252,
			"byteOffset":9588,
			"target":34962
		},
		{
			"buffer":0,
			"byteLength":168,
			"byteOffset":9840,
			"target":34962
		},
		{
			"buffer":0,
			"byteLength":252,
			"byteOffset":10008,
			"target":34962
		},
		{
			"buffer":0,
			"byteLength":252,
			"byteOffset":10260,
			"target":34962
		},
		{
			"buffer":0,
			"byteLength":168,
			"byteOffset":10512,
			"target":34962
		},
		{
			"buffer":0,
			"byteLength":252,
			"byteOffset":10680,
			"target":34962
		},
		{
			"buffer":0,
			"byteLength":252,
			"byteOffset":10932,
			"target":34962
		},
		{
			"buffer":0,
			"byteLength":168,
			"byteOffset":11184,
			"target":34962
		},
		{
			"buffer":0,
			"byteLength":252,
			"byteOffset":11352,
			"target":34962
		},
		{
			"buffer":0,
			"byteLength":252,
			"byteOffset":11604,
			"target":34962
		},
		{
			"buffer":0,
			"byteLength":168,
			"byteOffset":11856,
			"target":34962
		},
		{
			"buffer":0,
			"byteLength":252,
			"byteOffset":12024,
			"target":34962
		},
		{
			"buffer":0,
			"byteLength":252,
			"byteOffset":12276,
			"target":34962
		},
		{
			"buffer":0,
			"byteLength":168,
			"byteOffset":12528,
			"target":34962
		},
		{
			"buffer":0,
			"byteLength":252,
			"byteOffset":12696,
			"target":34962
		},
		{
			"buffer":0,
			"byteLength":252,
			"byteOffset":12948,
			"target":34962
		},
		{
			"buffer":0,
			"byteLength":168,
			"byteOffset":13200,
			"target":34962
		},
		{
			"buffer":0,
			"byteLength":312,
			"byteOffset":13368,
			"target":34962
		},
		{
			"buffer":0,
			"byteLength":312,
			"byteOffset":13680,
			"target":34962
		},
		{
			"buffer":0,
			"byteLength":208,
			"byteOffset":13992,
			"target":34962
		},
		{
			"buffer":0,
			"byteLength":96,
			"byteOffset":14200,
			"target":34963
		}
	],
	"buffers":[
		{
			"byteLength":14296,
			"uri":"luna.bin"
		}
	]
}
