{
	"asset":{
		"generator":"Khronos glTF Blender I/O v4.3.47",
		"version":"2.0"
	},
	"scene":0,
	"scenes":[
		{
			"name":"Scene",
			"nodes":[
				0,
				1,
				2,
				3,
				4,
				5,
				6,
				7
			]
		}
	],
	"nodes":[
		{
			"mesh":0,
			"name":"Sphere",
			"scale":[
				0.5684847235679626,
				0.8914535045623779,
				0.8615255355834961
			],
			"translation":[
				0.01249396800994873,
				2.789804220199585,
				0
			]
		},
		{
			"mesh":1,
			"name":"Cube",
			"scale":[
				0.23268404603004456,
				1.261641502380371,
				0.6997163891792297
			],
			"translation":[
				0,
				0.8721602559089661,
				0
			]
		},
		{
			"mesh":2,
			"name":"Sphere.001",
			"rotation":[
				0,
				0,
				0.0793091356754303,
				0.9968500733375549
			],
			"scale":[
				0.03424127399921417,
				0.18567338585853577,
				0.11273842304944992
			],
			"translation":[
				0.4871595501899719,
				3.161823034286499,
				0.3771568536758423
			]
		},
		{
			"mesh":3,
			"name":"Sphere.002",
			"rotation":[
				0,
				0,
				0.0793091356754303,
				0.9968500733375549
			],
			"scale":[
				0.03424127399921417,
				0.18567338585853577,
				0.11273842304944992
			],
			"translation":[
				0.4871595501899719,
				3.161823034286499,
				-0.34203606843948364
			]
		},
		{
			"mesh":4,
			"name":"Sphere.003",
			"rotation":[
				0,
				0,
				-0.015274370089173317,
				0.9998833537101746
			],
			"scale":[
				0.029870202764868736,
				0.07330967485904694,
				0.0983833447098732
			],
			"translation":[
				0.5722541213035583,
				2.649754047393799,
				-0.0318148136138916
			]
		},
		{
			"mesh":5,
			"name":"Cube.001",
			"rotation":[
				-0.12242788076400757,
				0.6964276432991028,
				-0.12242788821458817,
				0.696427583694458
			],
			"scale":[
				0.2388143390417099,
				0.05512901023030281,
				0.22459909319877625
			],
			"translation":[
				0.04251791536808014,
				3.542450189590454,
				0.7902615666389465
			]
		},
		{
			"mesh":6,
			"name":"Cube.002",
			"rotation":[
				0.12242788821458817,
				-0.696427583694458,
				-0.12242786586284637,
				0.6964276432991028
			],
			"scale":[
				0.24486491084098816,
				0.05652574822306633,
				0.230289489030838
			],
			"translation":[
				0.03306509554386139,
				3.542450189590454,
				-0.8068277835845947
			]
		},
		{
			"mesh":7,
			"name":"Cylinder",
			"rotation":[
				-0.465430349111557,
				-0.46543028950691223,
				-0.5323294401168823,
				0.5323294401168823
			],
			"scale":[
				0.07556480169296265,
				0.07556480169296265,
				0.07556480169296265
			],
			"translation":[
				-0.29321253299713135,
				0.7916468381881714,
				0
			]
		}
	],
	"materials":[
		{
			"doubleSided":true,
			"name":"Material.002",
			"pbrMetallicRoughness":{
				"baseColorFactor":[
					0.3824973702430725,
					0.30966195464134216,
					0.15944451093673706,
					1
				],
				"metallicFactor":0,
				"roughnessFactor":0.5
			}
		},
		{
			"doubleSided":true,
			"name":"Material.001",
			"pbrMetallicRoughness":{
				"baseColorFactor":[
					0.8003931045532227,
					0.5201364159584045,
					0.3043794631958008,
					1
				],
				"metallicFactor":0,
				"roughnessFactor":0.5
			}
		},
		{
			"doubleSided":true,
			"name":"Material.003",
			"pbrMetallicRoughness":{
				"baseColorFactor":[
					0.031926579773426056,
					0.012667056173086166,
					0.009170517325401306,
					1
				],
				"metallicFactor":0,
				"roughnessFactor":0.5
			}
		},
		{
			"doubleSided":true,
			"name":"Material.004",
			"pbrMetallicRoughness":{
				"baseColorFactor":[
					0,
					0,
					0,
					1
				],
				"metallicFactor":0,
				"roughnessFactor":0.5
			}
		},
		{
			"doubleSided":true,
			"name":"Material.005",
			"pbrMetallicRoughness":{
				"baseColorFactor":[
					0.8003553152084351,
					0.21388903260231018,
					0.33145463466644287,
					1
				],
				"metallicFactor":0,
				"roughnessFactor":0.5
			}
		}
	],
	"meshes":[
		{
			"name":"Sphere",
			"primitives":[
				{
					"attributes":{
						"POSITION":0,
						"NORMAL":1,
						"TEXCOORD_0":2
					},
					"indices":3,
					"material":0
				},
				{
					"attributes":{
						"POSITION":4,
						"NORMAL":5,
						"TEXCOORD_0":6
					},
					"indices":7,
					"material":1
				}
			]
		},
		{
			"name":"Cube.001",
			"primitives":[
				{
					"attributes":{
						"POSITION":8,
						"NORMAL":9,
						"TEXCOORD_0":10
					},
					"indices":11,
					"material":0
				},
				{
					"attributes":{
						"POSITION":12,
						"NORMAL":13,
						"TEXCOORD_0":14
					},
					"indices":15,
					"material":1
				},
				{
					"attributes":{
						"POSITION":16,
						"NORMAL":17,
						"TEXCOORD_0":18
					},
					"indices":19,
					"material":2
				}
			]
		},
		{
			"name":"Sphere.001",
			"primitives":[
				{
					"attributes":{
						"POSITION":20,
						"NORMAL":21,
						"TEXCOORD_0":22
					},
					"indices":23,
					"material":3
				}
			]
		},
		{
			"name":"Sphere.002",
			"primitives":[
				{
					"attributes":{
						"POSITION":24,
						"NORMAL":25,
						"TEXCOORD_0":26
					},
					"indices":23,
					"material":3
				}
			]
		},
		{
			"name":"Sphere.003",
			"primitives":[
				{
					"attributes":{
						"POSITION":27,
						"NORMAL":28,
						"TEXCOORD_0":29
					},
					"indices":23,
					"material":4
				}
			]
		},
		{
			"name":"Cube.002",
			"primitives":[
				{
					"attributes":{
						"POSITION":30,
						"NORMAL":31,
						"TEXCOORD_0":32
					},
					"indices":33,
					"material":0
				}
			]
		},
		{
			"name":"Cube.003",
			"primitives":[
				{
					"attributes":{
						"POSITION":34,
						"NORMAL":35,
						"TEXCOORD_0":36
					},
					"indices":33,
					"material":0
				}
			]
		},
		{
			"name":"Cylinder.001",
			"primitives":[
				{
					"attributes":{
						"POSITION":37,
						"NORMAL":38,
						"TEXCOORD_0":39
					},
					"indices":40,
					"material":0
				}
			]
		}
	],
	"accessors":[
		{
			"bufferView":0,
			"componentType":5126,
			"count":1936,
			"max":[
				0.9999997019767761,
				1,
				0.9999993443489075
			],
			"min":[
				-0.9999990463256836,
				-1,
				-1
			],
			"type":"VEC3"
		},
		{
			"bufferView":1,
			"componentType":5126,
			"count":1936,
			"type":"VEC3"
		},
		{
			"bufferView":2,
			"componentType":5126,
			"count":1936,
			"type":"VEC2"
		},
		{
			"bufferView":3,
			"componentType":5123,
			"count":2808,
			"type":"SCALAR"
		},
		{
			"bufferView":4,
			"componentType":5126,
			"count":48,
			"max":[
				0.46193957328796387,
				0.8314695954322815,
				0.9061272144317627
			],
			"min":[
				-1.043081283569336e-07,
				-0.9238795042037964,
				-0.8314695954322815
			],
			"type":"VEC3"
		},
		{
			"bufferView":5,
			"componentType":5126,
			"count":48,
			"type":"VEC3"
		},
		{
			"bufferView":6,
			"componentType":5126,
			"count":48,
			"type":"VEC2"
		},
		{
			"bufferView":7,
			"componentType":5123,
			"count":72,
			"type":"SCALAR"
		},
		{
			"bufferView":8,
			"componentType":5126,
			"count":468,
			"max":[
				1,
				1,
				1
			],
			"min":[
				-1,
				-1,
				-1
			],
			"type":"VEC3"
		},
		{
			"bufferView":9,
			"componentType":5126,
			"count":468,
			"type":"VEC3"
		},
		{
			"bufferView":10,
			"componentType":5126,
			"count":468,
			"type":"VEC2"
		},
		{
			"bufferView":11,
			"componentType":5123,
			"count":1290,
			"type":"SCALAR"
		},
		{
			"bufferView":12,
			"componentType":5126,
			"count":55,
			"max":[
				1,
				1,
				0.6000000238418579
			],
			"min":[
				1,
				0,
				-0.6000000238418579
			],
			"type":"VEC3"
		},
		{
			"bufferView":13,
			"componentType":5126,
			"count":55,
			"type":"VEC3"
		},
		{
			"bufferView":14,
			"componentType":5126,
			"count":55,
			"type":"VEC2"
		},
		{
			"bufferView":15,
			"componentType":5123,
			"count":240,
			"type":"SCALAR"
		},
		{
			"bufferView":16,
			"componentType":5126,
			"count":4,
			"max":[
				1,
				-0.800000011920929,
				-0.2535898685455322
			],
			"min":[
				-1,
				-0.8828427195549011,
				-0.3171572983264923
			],
			"type":"VEC3"
		},
		{
			"bufferView":17,
			"componentType":5126,
			"count":4,
			"type":"VEC3"
		},
		{
			"bufferView":18,
			"componentType":5126,
			"count":4,
			"type":"VEC2"
		},
		{
			"bufferView":19,
			"componentType":5123,
			"count":6,
			"type":"SCALAR"
		},
		{
			"bufferView":20,
			"componentType":5126,
			"count":1984,
			"max":[
				0.9999997019767761,
				1,
				0.9999993443489075
			],
			"min":[
				-0.9999990463256836,
				-1,
				-1
			],
			"type":"VEC3"
		},
		{
			"bufferView":21,
			"componentType":5126,
			"count":1984,
			"type":"VEC3"
		},
		{
			"bufferView":22,
			"componentType":5126,
			"count":1984,
			"type":"VEC2"
		},
		{
			"bufferView":23,
			"componentType":5123,
			"count":2880,
			"type":"SCALAR"
		},
		{
			"bufferView":24,
			"componentType":5126,
			"count":1984,
			"max":[
				0.9999997019767761,
				1,
				0.9999993443489075
			],
			"min":[
				-0.9999990463256836,
				-1,
				-1
			],
			"type":"VEC3"
		},
		{
			"bufferView":25,
			"componentType":5126,
			"count":1984,
			"type":"VEC3"
		},
		{
			"bufferView":26,
			"componentType":5126,
			"count":1984,
			"type":"VEC2"
		},
		{
			"bufferView":27,
			"componentType":5126,
			"count":1984,
			"max":[
				0.9999997019767761,
				1,
				0.9999993443489075
			],
			"min":[
				-0.9999990463256836,
				-1,
				-1
			],
			"type":"VEC3"
		},
		{
			"bufferView":28,
			"componentType":5126,
			"count":1984,
			"type":"VEC3"
		},
		{
			"bufferView":29,
			"componentType":5126,
			"count":1984,
			"type":"VEC2"
		},
		{
			"bufferView":30,
			"componentType":5126,
			"count":52,
			"max":[
				2.0656847953796387,
				1,
				1
			],
			"min":[
				-1,
				-6.5162553787231445,
				-1
			],
			"type":"VEC3"
		},
		{
			"bufferView":31,
			"componentType":5126,
			"count":52,
			"type":"VEC3"
		},
		{
			"bufferView":32,
			"componentType":5126,
			"count":52,
			"type":"VEC2"
		},
		{
			"bufferView":33,
			"componentType":5123,
			"count":84,
			"type":"SCALAR"
		},
		{
			"bufferView":34,
			"componentType":5126,
			"count":52,
			"max":[
				2.0656847953796387,
				1,
				1
			],
			"min":[
				-1,
				-6.5162553787231445,
				-1
			],
			"type":"VEC3"
		},
		{
			"bufferView":35,
			"componentType":5126,
			"count":52,
			"type":"VEC3"
		},
		{
			"bufferView":36,
			"componentType":5126,
			"count":52,
			"type":"VEC2"
		},
		{
			"bufferView":37,
			"componentType":5126,
			"count":832,
			"max":[
				1.0559825897216797,
				0.999997615814209,
				1.6490919589996338
			],
			"min":[
				-2.4244046211242676,
				-6.206050395965576,
				-1.6490919589996338
			],
			"type":"VEC3"
		},
		{
			"bufferView":38,
			"componentType":5126,
			"count":832,
			"type":"VEC3"
		},
		{
			"bufferView":39,
			"componentType":5126,
			"count":832,
			"type":"VEC2"
		},
		{
			"bufferView":40,
			"componentType":5123,
			"count":1332,
			"type":"SCALAR"
		}
	],
	"bufferViews":[
		{
			"buffer":0,
			"byteLength":23232,
			"byteOffset":0,
			"target":34962
		},
		{
			"buffer":0,
			"byteLength":23232,
			"byteOffset":23232,
			"target":34962
		},
		{
			"buffer":0,
			"byteLength":15488,
			"byteOffset":46464,
			"target":34962
		},
		{
			"buffer":0,
			"byteLength":5616,
			"byteOffset":61952,
			"target":34963
		},
		{
			"buffer":0,
			"byteLength":576,
			"byteOffset":67568,
			"target":34962
		},
		{
			"buffer":0,
			"byteLength":576,
			"byteOffset":68144,
			"target":34962
		},
		{
			"buffer":0,
			"byteLength":384,
			"byteOffset":68720,
			"target":34962
		},
		{
			"buffer":0,
			"byteLength":144,
			"byteOffset":69104,
			"target":34963
		},
		{
			"buffer":0,
			"byteLength":5616,
			"byteOffset":69248,
			"target":34962
		},
		{
			"buffer":0,
			"byteLength":5616,
			"byteOffset":74864,
			"target":34962
		},
		{
			"buffer":0,
			"byteLength":3744,
			"byteOffset":80480,
			"target":34962
		},
		{
			"buffer":0,
			"byteLength":2580,
			"byteOffset":84224,
			"target":34963
		},
		{
			"buffer":0,
			"byteLength":660,
			"byteOffset":86804,
			"target":34962
		},
		{
			"buffer":0,
			"byteLength":660,
			"byteOffset":87464,
			"target":34962
		},
		{
			"buffer":0,
			"byteLength":440,
			"byteOffset":88124,
			"target":34962
		},
		{
			"buffer":0,
			"byteLength":480,
			"byteOffset":88564,
			"target":34963
		},
		{
			"buffer":0,
			"byteLength":48,
			"byteOffset":89044,
			"target":34962
		},
		{
			"buffer":0,
			"byteLength":48,
			"byteOffset":89092,
			"target":34962
		},
		{
			"buffer":0,
			"byteLength":32,
			"byteOffset":89140,
			"target":34962
		},
		{
			"buffer":0,
			"byteLength":12,
			"byteOffset":89172,
			"target":34963
		},
		{
			"buffer":0,
			"byteLength":23808,
			"byteOffset":89184,
			"target":34962
		},
		{
			"buffer":0,
			"byteLength":23808,
			"byteOffset":112992,
			"target":34962
		},
		{
			"buffer":0,
			"byteLength":15872,
			"byteOffset":136800,
			"target":34962
		},
		{
			"buffer":0,
			"byteLength":5760,
			"byteOffset":152672,
			"target":34963
		},
		{
			"buffer":0,
			"byteLength":23808,
			"byteOffset":158432,
			"target":34962
		},
		{
			"buffer":0,
			"byteLength":23808,
			"byteOffset":182240,
			"target":34962
		},
		{
			"buffer":0,
			"byteLength":15872,
			"byteOffset":206048,
			"target":34962
		},
		{
			"buffer":0,
			"byteLength":23808,
			"byteOffset":221920,
			"target":34962
		},
		{
			"buffer":0,
			"byteLength":23808,
			"byteOffset":245728,
			"target":34962
		},
		{
			"buffer":0,
			"byteLength":15872,
			"byteOffset":269536,
			"target":34962
		},
		{
			"buffer":0,
			"byteLength":624,
			"byteOffset":285408,
			"target":34962
		},
		{
			"buffer":0,
			"byteLength":624,
			"byteOffset":286032,
			"target":34962
		},
		{
			"buffer":0,
			"byteLength":416,
			"byteOffset":286656,
			"target":34962
		},
		{
			"buffer":0,
			"byteLength":168,
			"byteOffset":287072,
			"target":34963
		},
		{
			"buffer":0,
			"byteLength":624,
			"byteOffset":287240,
			"target":34962
		},
		{
			"buffer":0,
			"byteLength":624,
			"byteOffset":287864,
			"target":34962
		},
		{
			"buffer":0,
			"byteLength":416,
			"byteOffset":288488,
			"target":34962
		},
		{
			"buffer":0,
			"byteLength":9984,
			"byteOffset":288904,
			"target":34962
		},
		{
			"buffer":0,
			"byteLength":9984,
			"byteOffset":298888,
			"target":34962
		},
		{
			"buffer":0,
			"byteLength":6656,
			"byteOffset":308872,
			"target":34962
		},
		{
			"buffer":0,
			"byteLength":2664,
			"byteOffset":315528,
			"target":34963
		}
	],
	"buffers":[
		{
			"byteLength":318192,
			"uri":"perro.bin"
		}
	]
}
