{
	"asset":{
		"generator":"Khronos glTF Blender I/O v4.3.47",
		"version":"2.0"
	},
	"scene":0,
	"scenes":[
		{
			"name":"Scene",
			"nodes":[
				0,
				1,
				2,
				3,
				4,
				5,
				6,
				7
			]
		}
	],
	"nodes":[
		{
			"mesh":0,
			"name":"Sphere",
			"scale":[
				0.5684847235679626,
				0.8914535045623779,
				0.8615255355834961
			],
			"translation":[
				0.01249396800994873,
				2.789804220199585,
				0
			]
		},
		{
			"mesh":1,
			"name":"Cube",
			"scale":[
				0.23268404603004456,
				1.261641502380371,
				0.6997163891792297
			],
			"translation":[
				0,
				0.8721602559089661,
				0
			]
		},
		{
			"mesh":2,
			"name":"Cone",
			"rotation":[
				-0.41106465458869934,
				0,
				0,
				0.9116061925888062
			],
			"scale":[
				0.29182302951812744,
				0.4751516580581665,
				0.35361698269844055
			],
			"translation":[
				-0.0375136137008667,
				3.676913022994995,
				-0.8852856159210205
			]
		},
		{
			"mesh":3,
			"name":"Cone.001",
			"rotation":[
				0,
				-0.8983554840087891,
				-0.43926918506622314,
				2.7129559043714835e-07
			],
			"scale":[
				0.29182302951812744,
				0.4751516580581665,
				0.35361698269844055
			],
			"translation":[
				-0.0375136137008667,
				3.6168713569641113,
				0.903954267501831
			]
		},
		{
			"mesh":4,
			"name":"Cylinder",
			"rotation":[
				-0.5273047089576721,
				-0.5273046493530273,
				-0.47111546993255615,
				0.4711155295372009
			],
			"scale":[
				0.15195722877979279,
				0.15195724368095398,
				0.15195722877979279
			],
			"translation":[
				-0.34672102332115173,
				0.7670911550521851,
				0
			]
		},
		{
			"mesh":5,
			"name":"Sphere.001",
			"rotation":[
				0,
				0,
				0.0793091356754303,
				0.9968500733375549
			],
			"scale":[
				0.03424127399921417,
				0.18567338585853577,
				0.11273842304944992
			],
			"translation":[
				0.4871595501899719,
				3.161823034286499,
				0.3771568536758423
			]
		},
		{
			"mesh":6,
			"name":"Sphere.002",
			"rotation":[
				0,
				0,
				0.0793091356754303,
				0.9968500733375549
			],
			"scale":[
				0.03424127399921417,
				0.18567338585853577,
				0.11273842304944992
			],
			"translation":[
				0.4871595501899719,
				3.161823034286499,
				-0.34203606843948364
			]
		},
		{
			"mesh":7,
			"name":"Sphere.003",
			"rotation":[
				0,
				0,
				-0.015274370089173317,
				0.9998833537101746
			],
			"scale":[
				0.029870202764868736,
				0.07330967485904694,
				0.0983833447098732
			],
			"translation":[
				0.5722541213035583,
				2.649754047393799,
				-0.0318148136138916
			]
		}
	],
	"materials":[
		{
			"doubleSided":true,
			"name":"Material.002",
			"pbrMetallicRoughness":{
				"baseColorFactor":[
					0.442583829164505,
					0.1563415229320526,
					0.0748177170753479,
					1
				],
				"metallicFactor":0,
				"roughnessFactor":0.5
			}
		},
		{
			"doubleSided":true,
			"name":"Material.001",
			"pbrMetallicRoughness":{
				"baseColorFactor":[
					0.800000011920929,
					0.800000011920929,
					0.800000011920929,
					1
				],
				"metallicFactor":0,
				"roughnessFactor":0.5
			}
		},
		{
			"doubleSided":true,
			"name":"Material.003",
			"pbrMetallicRoughness":{
				"baseColorFactor":[
					0.031926579773426056,
					0.012667056173086166,
					0.009170517325401306,
					1
				],
				"metallicFactor":0,
				"roughnessFactor":0.5
			}
		},
		{
			"doubleSided":true,
			"name":"Material.004",
			"pbrMetallicRoughness":{
				"baseColorFactor":[
					0,
					0,
					0,
					1
				],
				"metallicFactor":0,
				"roughnessFactor":0.5
			}
		}
	],
	"meshes":[
		{
			"name":"Sphere",
			"primitives":[
				{
					"attributes":{
						"POSITION":0,
						"NORMAL":1,
						"TEXCOORD_0":2
					},
					"indices":3,
					"material":0
				},
				{
					"attributes":{
						"POSITION":4,
						"NORMAL":5,
						"TEXCOORD_0":6
					},
					"indices":7,
					"material":1
				}
			]
		},
		{
			"name":"Cube.001",
			"primitives":[
				{
					"attributes":{
						"POSITION":8,
						"NORMAL":9,
						"TEXCOORD_0":10
					},
					"indices":11,
					"material":0
				},
				{
					"attributes":{
						"POSITION":12,
						"NORMAL":13,
						"TEXCOORD_0":14
					},
					"indices":15,
					"material":1
				},
				{
					"attributes":{
						"POSITION":16,
						"NORMAL":17,
						"TEXCOORD_0":18
					},
					"indices":19,
					"material":2
				}
			]
		},
		{
			"name":"Cone",
			"primitives":[
				{
					"attributes":{
						"POSITION":20,
						"NORMAL":21,
						"TEXCOORD_0":22
					},
					"indices":23,
					"material":0
				},
				{
					"attributes":{
						"POSITION":24,
						"NORMAL":25,
						"TEXCOORD_0":26
					},
					"indices":27,
					"material":1
				}
			]
		},
		{
			"name":"Cone.001",
			"primitives":[
				{
					"attributes":{
						"POSITION":28,
						"NORMAL":29,
						"TEXCOORD_0":30
					},
					"indices":31,
					"material":0
				},
				{
					"attributes":{
						"POSITION":32,
						"NORMAL":33,
						"TEXCOORD_0":34
					},
					"indices":35,
					"material":1
				}
			]
		},
		{
			"name":"Cylinder",
			"primitives":[
				{
					"attributes":{
						"POSITION":36,
						"NORMAL":37,
						"TEXCOORD_0":38
					},
					"indices":39,
					"material":1
				},
				{
					"attributes":{
						"POSITION":40,
						"NORMAL":41,
						"TEXCOORD_0":42
					},
					"indices":43,
					"material":0
				}
			]
		},
		{
			"name":"Sphere.001",
			"primitives":[
				{
					"attributes":{
						"POSITION":44,
						"NORMAL":45,
						"TEXCOORD_0":46
					},
					"indices":47,
					"material":3
				}
			]
		},
		{
			"name":"Sphere.002",
			"primitives":[
				{
					"attributes":{
						"POSITION":48,
						"NORMAL":49,
						"TEXCOORD_0":50
					},
					"indices":47,
					"material":3
				}
			]
		},
		{
			"name":"Sphere.003",
			"primitives":[
				{
					"attributes":{
						"POSITION":51,
						"NORMAL":52,
						"TEXCOORD_0":53
					},
					"indices":47,
					"material":3
				}
			]
		}
	],
	"accessors":[
		{
			"bufferView":0,
			"componentType":5126,
			"count":1680,
			"max":[
				0.9999997019767761,
				1,
				0.9999993443489075
			],
			"min":[
				-0.9999990463256836,
				-1,
				-1
			],
			"type":"VEC3"
		},
		{
			"bufferView":1,
			"componentType":5126,
			"count":1680,
			"type":"VEC3"
		},
		{
			"bufferView":2,
			"componentType":5126,
			"count":1680,
			"type":"VEC2"
		},
		{
			"bufferView":3,
			"componentType":5123,
			"count":2424,
			"type":"SCALAR"
		},
		{
			"bufferView":4,
			"componentType":5126,
			"count":304,
			"max":[
				0.9999997019767761,
				0.8314695954322815,
				0.9061272144317627
			],
			"min":[
				-1.043081283569336e-07,
				-0.9238795042037964,
				-0.906127393245697
			],
			"type":"VEC3"
		},
		{
			"bufferView":5,
			"componentType":5126,
			"count":304,
			"type":"VEC3"
		},
		{
			"bufferView":6,
			"componentType":5126,
			"count":304,
			"type":"VEC2"
		},
		{
			"bufferView":7,
			"componentType":5123,
			"count":456,
			"type":"SCALAR"
		},
		{
			"bufferView":8,
			"componentType":5126,
			"count":316,
			"max":[
				1,
				1,
				1
			],
			"min":[
				-1,
				-1,
				-1
			],
			"type":"VEC3"
		},
		{
			"bufferView":9,
			"componentType":5126,
			"count":316,
			"type":"VEC3"
		},
		{
			"bufferView":10,
			"componentType":5126,
			"count":316,
			"type":"VEC2"
		},
		{
			"bufferView":11,
			"componentType":5123,
			"count":948,
			"type":"SCALAR"
		},
		{
			"bufferView":12,
			"componentType":5126,
			"count":55,
			"max":[
				1,
				1,
				0.6000000238418579
			],
			"min":[
				1,
				0,
				-0.6000000238418579
			],
			"type":"VEC3"
		},
		{
			"bufferView":13,
			"componentType":5126,
			"count":55,
			"type":"VEC3"
		},
		{
			"bufferView":14,
			"componentType":5126,
			"count":55,
			"type":"VEC2"
		},
		{
			"bufferView":15,
			"componentType":5123,
			"count":240,
			"type":"SCALAR"
		},
		{
			"bufferView":16,
			"componentType":5126,
			"count":172,
			"max":[
				1,
				-0.6000000238418579,
				1
			],
			"min":[
				-1,
				-1,
				-1
			],
			"type":"VEC3"
		},
		{
			"bufferView":17,
			"componentType":5126,
			"count":172,
			"type":"VEC3"
		},
		{
			"bufferView":18,
			"componentType":5126,
			"count":172,
			"type":"VEC2"
		},
		{
			"bufferView":19,
			"componentType":5123,
			"count":348,
			"type":"SCALAR"
		},
		{
			"bufferView":20,
			"componentType":5126,
			"count":107,
			"max":[
				0.3834803104400635,
				0.17499375343322754,
				1
			],
			"min":[
				-0.383480429649353,
				-1,
				-1
			],
			"type":"VEC3"
		},
		{
			"bufferView":21,
			"componentType":5126,
			"count":107,
			"type":"VEC3"
		},
		{
			"bufferView":22,
			"componentType":5126,
			"count":107,
			"type":"VEC2"
		},
		{
			"bufferView":23,
			"componentType":5123,
			"count":165,
			"type":"SCALAR"
		},
		{
			"bufferView":24,
			"componentType":5126,
			"count":21,
			"max":[
				0.3834803104400635,
				0.17499375343322754,
				0.7071067690849304
			],
			"min":[
				0,
				-1,
				-0.5555702447891235
			],
			"type":"VEC3"
		},
		{
			"bufferView":25,
			"componentType":5126,
			"count":21,
			"type":"VEC3"
		},
		{
			"bufferView":26,
			"componentType":5126,
			"count":21,
			"type":"VEC2"
		},
		{
			"bufferView":27,
			"componentType":5123,
			"count":21,
			"type":"SCALAR"
		},
		{
			"bufferView":28,
			"componentType":5126,
			"count":107,
			"max":[
				0.39193159341812134,
				0.17499375343322754,
				1
			],
			"min":[
				-0.39193159341812134,
				-1.0000001192092896,
				-1
			],
			"type":"VEC3"
		},
		{
			"bufferView":29,
			"componentType":5126,
			"count":107,
			"type":"VEC3"
		},
		{
			"bufferView":30,
			"componentType":5126,
			"count":107,
			"type":"VEC2"
		},
		{
			"bufferView":31,
			"componentType":5123,
			"count":165,
			"type":"SCALAR"
		},
		{
			"bufferView":32,
			"componentType":5126,
			"count":21,
			"max":[
				0,
				0.17499375343322754,
				0.70710688829422
			],
			"min":[
				-0.39193159341812134,
				-1.0000001192092896,
				-0.5555700659751892
			],
			"type":"VEC3"
		},
		{
			"bufferView":33,
			"componentType":5126,
			"count":21,
			"type":"VEC3"
		},
		{
			"bufferView":34,
			"componentType":5126,
			"count":21,
			"type":"VEC2"
		},
		{
			"bufferView":35,
			"componentType":5123,
			"count":21,
			"type":"SCALAR"
		},
		{
			"bufferView":36,
			"componentType":5126,
			"count":896,
			"max":[
				0.2202274203300476,
				0.970930278301239,
				1.6500053405761719
			],
			"min":[
				-3.8179383277893066,
				-5.467081069946289,
				-1.6500053405761719
			],
			"type":"VEC3"
		},
		{
			"bufferView":37,
			"componentType":5126,
			"count":896,
			"type":"VEC3"
		},
		{
			"bufferView":38,
			"componentType":5126,
			"count":896,
			"type":"VEC2"
		},
		{
			"bufferView":39,
			"componentType":5123,
			"count":1428,
			"type":"SCALAR"
		},
		{
			"bufferView":40,
			"componentType":5126,
			"count":960,
			"max":[
				0.6458746790885925,
				0.970930278301239,
				1.6500053405761719
			],
			"min":[
				-3.370939254760742,
				-4.776984214782715,
				-1.6500053405761719
			],
			"type":"VEC3"
		},
		{
			"bufferView":41,
			"componentType":5126,
			"count":960,
			"type":"VEC3"
		},
		{
			"bufferView":42,
			"componentType":5126,
			"count":960,
			"type":"VEC2"
		},
		{
			"bufferView":43,
			"componentType":5123,
			"count":1440,
			"type":"SCALAR"
		},
		{
			"bufferView":44,
			"componentType":5126,
			"count":1984,
			"max":[
				0.9999997019767761,
				1,
				0.9999993443489075
			],
			"min":[
				-0.9999990463256836,
				-1,
				-1
			],
			"type":"VEC3"
		},
		{
			"bufferView":45,
			"componentType":5126,
			"count":1984,
			"type":"VEC3"
		},
		{
			"bufferView":46,
			"componentType":5126,
			"count":1984,
			"type":"VEC2"
		},
		{
			"bufferView":47,
			"componentType":5123,
			"count":2880,
			"type":"SCALAR"
		},
		{
			"bufferView":48,
			"componentType":5126,
			"count":1984,
			"max":[
				0.9999997019767761,
				1,
				0.9999993443489075
			],
			"min":[
				-0.9999990463256836,
				-1,
				-1
			],
			"type":"VEC3"
		},
		{
			"bufferView":49,
			"componentType":5126,
			"count":1984,
			"type":"VEC3"
		},
		{
			"bufferView":50,
			"componentType":5126,
			"count":1984,
			"type":"VEC2"
		},
		{
			"bufferView":51,
			"componentType":5126,
			"count":1984,
			"max":[
				0.9999997019767761,
				1,
				0.9999993443489075
			],
			"min":[
				-0.9999990463256836,
				-1,
				-1
			],
			"type":"VEC3"
		},
		{
			"bufferView":52,
			"componentType":5126,
			"count":1984,
			"type":"VEC3"
		},
		{
			"bufferView":53,
			"componentType":5126,
			"count":1984,
			"type":"VEC2"
		}
	],
	"bufferViews":[
		{
			"buffer":0,
			"byteLength":20160,
			"byteOffset":0,
			"target":34962
		},
		{
			"buffer":0,
			"byteLength":20160,
			"byteOffset":20160,
			"target":34962
		},
		{
			"buffer":0,
			"byteLength":13440,
			"byteOffset":40320,
			"target":34962
		},
		{
			"buffer":0,
			"byteLength":4848,
			"byteOffset":53760,
			"target":34963
		},
		{
			"buffer":0,
			"byteLength":3648,
			"byteOffset":58608,
			"target":34962
		},
		{
			"buffer":0,
			"byteLength":3648,
			"byteOffset":62256,
			"target":34962
		},
		{
			"buffer":0,
			"byteLength":2432,
			"byteOffset":65904,
			"target":34962
		},
		{
			"buffer":0,
			"byteLength":912,
			"byteOffset":68336,
			"target":34963
		},
		{
			"buffer":0,
			"byteLength":3792,
			"byteOffset":69248,
			"target":34962
		},
		{
			"buffer":0,
			"byteLength":3792,
			"byteOffset":73040,
			"target":34962
		},
		{
			"buffer":0,
			"byteLength":2528,
			"byteOffset":76832,
			"target":34962
		},
		{
			"buffer":0,
			"byteLength":1896,
			"byteOffset":79360,
			"target":34963
		},
		{
			"buffer":0,
			"byteLength":660,
			"byteOffset":81256,
			"target":34962
		},
		{
			"buffer":0,
			"byteLength":660,
			"byteOffset":81916,
			"target":34962
		},
		{
			"buffer":0,
			"byteLength":440,
			"byteOffset":82576,
			"target":34962
		},
		{
			"buffer":0,
			"byteLength":480,
			"byteOffset":83016,
			"target":34963
		},
		{
			"buffer":0,
			"byteLength":2064,
			"byteOffset":83496,
			"target":34962
		},
		{
			"buffer":0,
			"byteLength":2064,
			"byteOffset":85560,
			"target":34962
		},
		{
			"buffer":0,
			"byteLength":1376,
			"byteOffset":87624,
			"target":34962
		},
		{
			"buffer":0,
			"byteLength":696,
			"byteOffset":89000,
			"target":34963
		},
		{
			"buffer":0,
			"byteLength":1284,
			"byteOffset":89696,
			"target":34962
		},
		{
			"buffer":0,
			"byteLength":1284,
			"byteOffset":90980,
			"target":34962
		},
		{
			"buffer":0,
			"byteLength":856,
			"byteOffset":92264,
			"target":34962
		},
		{
			"buffer":0,
			"byteLength":330,
			"byteOffset":93120,
			"target":34963
		},
		{
			"buffer":0,
			"byteLength":252,
			"byteOffset":93452,
			"target":34962
		},
		{
			"buffer":0,
			"byteLength":252,
			"byteOffset":93704,
			"target":34962
		},
		{
			"buffer":0,
			"byteLength":168,
			"byteOffset":93956,
			"target":34962
		},
		{
			"buffer":0,
			"byteLength":42,
			"byteOffset":94124,
			"target":34963
		},
		{
			"buffer":0,
			"byteLength":1284,
			"byteOffset":94168,
			"target":34962
		},
		{
			"buffer":0,
			"byteLength":1284,
			"byteOffset":95452,
			"target":34962
		},
		{
			"buffer":0,
			"byteLength":856,
			"byteOffset":96736,
			"target":34962
		},
		{
			"buffer":0,
			"byteLength":330,
			"byteOffset":97592,
			"target":34963
		},
		{
			"buffer":0,
			"byteLength":252,
			"byteOffset":97924,
			"target":34962
		},
		{
			"buffer":0,
			"byteLength":252,
			"byteOffset":98176,
			"target":34962
		},
		{
			"buffer":0,
			"byteLength":168,
			"byteOffset":98428,
			"target":34962
		},
		{
			"buffer":0,
			"byteLength":42,
			"byteOffset":98596,
			"target":34963
		},
		{
			"buffer":0,
			"byteLength":10752,
			"byteOffset":98640,
			"target":34962
		},
		{
			"buffer":0,
			"byteLength":10752,
			"byteOffset":109392,
			"target":34962
		},
		{
			"buffer":0,
			"byteLength":7168,
			"byteOffset":120144,
			"target":34962
		},
		{
			"buffer":0,
			"byteLength":2856,
			"byteOffset":127312,
			"target":34963
		},
		{
			"buffer":0,
			"byteLength":11520,
			"byteOffset":130168,
			"target":34962
		},
		{
			"buffer":0,
			"byteLength":11520,
			"byteOffset":141688,
			"target":34962
		},
		{
			"buffer":0,
			"byteLength":7680,
			"byteOffset":153208,
			"target":34962
		},
		{
			"buffer":0,
			"byteLength":2880,
			"byteOffset":160888,
			"target":34963
		},
		{
			"buffer":0,
			"byteLength":23808,
			"byteOffset":163768,
			"target":34962
		},
		{
			"buffer":0,
			"byteLength":23808,
			"byteOffset":187576,
			"target":34962
		},
		{
			"buffer":0,
			"byteLength":15872,
			"byteOffset":211384,
			"target":34962
		},
		{
			"buffer":0,
			"byteLength":5760,
			"byteOffset":227256,
			"target":34963
		},
		{
			"buffer":0,
			"byteLength":23808,
			"byteOffset":233016,
			"target":34962
		},
		{
			"buffer":0,
			"byteLength":23808,
			"byteOffset":256824,
			"target":34962
		},
		{
			"buffer":0,
			"byteLength":15872,
			"byteOffset":280632,
			"target":34962
		},
		{
			"buffer":0,
			"byteLength":23808,
			"byteOffset":296504,
			"target":34962
		},
		{
			"buffer":0,
			"byteLength":23808,
			"byteOffset":320312,
			"target":34962
		},
		{
			"buffer":0,
			"byteLength":15872,
			"byteOffset":344120,
			"target":34962
		}
	],
	"buffers":[
		{
			"byteLength":359992,
			"uri":"zorro.bin"
		}
	]
}
